<?xml version="1.0" encoding="UTF-8" standalone="no"?>
<svg xmlns:rdf="http://www.w3.org/1999/02/22-rdf-syntax-ns#" xmlns="http://www.w3.org/2000/svg" height="32" width="32" version="1.1" xmlns:cc="http://creativecommons.org/ns#" xmlns:xlink="http://www.w3.org/1999/xlink" xmlns:dc="http://purl.org/dc/elements/1.1/">
 <g fill-rule="evenodd">
  <path d="M6 9 H 11 V 20 L 16 25 21 20 V 9 H 26 A 2 2 0 0 1 28 11 L 30 26 V 29 A 1 1 0 0 1 29 30 H 3 A 1 1 0 0 1 2 29 V 26 L 4 11 A 2 2 0 0 1 6 9 Z M 7 1 H 25 A 2 2 0 0 1 25 5 H 19 V 19.2 L 16 22.2 13 19.2 V 5 H 7 A 2 2 0 0 1 7 1 Z"/>
  <path d="M6 9 H 11 V 20 L 16 25 21 20 V 9 H 26 A 2 2 0 0 1 28 11 L 30 26 V 29 A 1 1 0 0 1 29 30 H 3 A 1 1 0 0 1 2 29 V 26 L 4 11 A 2 2 0 0 1 6 9 Z M 7 1 H 25 A 2 2 0 0 1 25 5 H 19 V 19.2 L 16 22.2 13 19.2 V 5 H 7 A 2 2 0 0 1 7 1 Z" fill="#fff"/>
 </g>
</svg>
